<?xml version="1.0" encoding="utf-8"?>
<svg version="1.1" xmlns="http://www.w3.org/2000/svg" xmlns:xlink="http://www.w3.org/1999/xlink" viewBox="0 0 183.9 237.8" xml:space="preserve">
<g stroke="white" fill="white">
<path d="M146,183.9c-27.1,22.3-66.1,25.8-96.5,8.1c-3.3-1.9-6.5-4-9.4-6.4c-4-3.1-5.2-2.9-10.1-1.4c-7.1,2.1-14.4,4.7-20.5,8.9
c-7.1,4.9-12.4,13.1-7.1,21.4c5.1,8.1,15.9,12,24.5,14.8c15,4.9,31,7,46.8,8c18.2,1.2,36.5,0.7,54.5-1.8
c13.6-1.8,27.4-4.6,39.8-10.4c7.5-3.5,17.3-10,15.9-19.7c-2.1-14.1-22.9-19.5-34.1-22.5c-4.7-1.2-6.7,6-2,7.2
c6.9,1.8,38,10.4,25.9,22.4c-4.4,4.4-10.8,6.9-16.6,8.9c-8.6,2.9-17.5,4.8-26.4,6.2c-22.8,3.5-46.3,3.6-69.2,1.1
c-15.8-1.8-34.9-4.4-48.3-13.9c-17.5-12.4,14.2-22.3,23.2-24.6c-1.2-0.3-2.4-0.6-3.6-1c34.5,28.5,84.1,28.5,118.7,0
C155,186.1,149.7,180.8,146,183.9z"/>
<path d="M142.2,191.4c-0.8,0.6-1.6,1.1-2.5,1.7c13,3.5,21.1,8.3,21.1,13.6c0,10.8-33.6,19.6-74.9,19.6c-15.9,0-30.7-1.3-42.8-3.5
c13.5,2.9,30.9,4.7,49.8,4.7c43,0,77.8-9.1,77.8-20.3C170.7,200.8,159.6,195.2,142.2,191.4z"/>
<path d="M92,27c-38.3,0.3-73,24.3-86.4,60.3c-13.4,36.2-1.8,78.4,28.1,102.8c30,24.4,73.1,27.6,106.2,7.4
c32.7-20,49.6-59,42.3-96.6C173.7,58.1,135.1,27.3,92,27c-4.8,0-4.8,7.5,0,7.5c35.3,0.3,67.7,22.6,79.6,56.1
c11.7,33.2,1.4,70.8-25.6,93.4c-27.2,22.8-67.2,25.6-97.5,7.4c-30.2-18.2-46.3-54.5-39.2-89.2c8-39.1,43-67.4,82.8-67.7
C96.8,34.4,96.8,26.9,92,27z"/>
<path d="M135.8,53.6C152.4,68,163,89.3,163,113c0,43.5-35.2,78.7-78.7,78.7c-16.2,0-31.3-4.9-43.9-13.4
c13.8,12,31.8,19.3,51.6,19.3c43.5,0,78.7-35.2,78.7-78.7C170.7,91.7,156.9,67.7,135.8,53.6z"/>
<path d="M0,30.7c0,19.9,0,39.8,0,59.7c0,31.6,0,63.1,0,94.7c0,7.3,0,14.7,0,22c0,4.8,7.5,4.8,7.5,0c0-19.9,0-39.8,0-59.7
c0-31.6,0-63.1,0-94.7c0-7.3,0-14.7,0-22C7.5,25.9,0,25.9,0,30.7L0,30.7z"/>
<path d="M176.4,30.7c0,19.9,0,39.8,0,59.7c0,31.6,0,63.1,0,94.7c0,7.3,0,14.7,0,22c0,4.8,7.5,4.8,7.5,0c0-19.9,0-39.8,0-59.7
c0-31.6,0-63.1,0-94.7c0-7.3,0-14.7,0-22C183.9,25.9,176.4,25.9,176.4,30.7L176.4,30.7z"/>
<path d="M99,50.7C57.6,50.7,24,42,24,31.2C24,20.4,57.6,11.6,99,11.6c15.9,0,30.7,1.3,42.8,3.5c-13.5-2.9-30.9-4.7-49.8-4.7
c-43,0-77.8,9.1-77.8,20.3C14.2,42,49,51.1,92,51.1c5.8,0,11.4-0.2,16.8-0.5C105.5,50.7,102.3,50.7,99,50.7z"/>
<path d="M176.4,30.7c-0.2,7-11.4,11.2-16.6,13.2c-12.7,4.8-26.3,7.2-39.8,8.6c-30.3,3.1-63.4,2.5-92.5-7.3
C21.5,43.1,10,39.4,7.8,32.3c-2-6.3,7.7-11,12.1-13c11.8-5.6,25.3-8,38.2-9.7C74.5,7.5,91.2,7.1,107.7,8
c16.2,0.9,32.6,3,48.1,8.1C161.8,18.1,176.1,22.5,176.4,30.7c0.2,4.8,7.7,4.8,7.5,0c-0.3-9.1-9.1-14.7-16.6-18.1
c-13.5-6.2-28.5-8.9-43.1-10.7c-19.1-2.3-38.6-2.5-57.7-0.7C51,2.6,35,5,20.5,10.9C12.8,14,2.4,18.9,0.3,28
c-1.9,8.5,5.5,15,12.1,18.8c12.2,6.9,26.8,9.9,40.5,11.9c19,2.8,38.3,3.4,57.4,2.2c17.6-1.1,36-3.5,52.5-10.1
c8.7-3.4,20.7-9.2,21-20C184.1,25.9,176.6,25.9,176.4,30.7z"/>
</g>
</svg>
